<?xml version="1.0" encoding="UTF-8" standalone="no"?>
<!DOCTYPE svg PUBLIC "-//W3C//DTD SVG 1.1//EN" "http://www.w3.org/Graphics/SVG/1.1/DTD/svg11.dtd">
<!-- Generated by graphviz version 2.40.1 (20161225.0304)
 -->
<!-- Title: G Pages: 1 -->
<svg width="246pt" height="368pt" viewBox="0.00 0.00 246.09 367.60" xmlns="http://www.w3.org/2000/svg" xmlns:xlink="http://www.w3.org/1999/xlink">
<g id="graph0" class="graph" transform="scale(1 1) rotate(0) translate(4 363.6)">
<title>G</title>
<polygon fill="#ffffff" stroke="transparent" points="-4,4 -4,-363.6 242.0897,-363.6 242.0897,4 -4,4"/>
<!-- src -->
<g id="node1" class="node">
<title>src</title>
<ellipse fill="none" stroke="#000000" cx="81.0223" cy="-341.6" rx="73.5637" ry="18"/>
<text text-anchor="middle" x="81.0223" y="-337.4" font-family="Times,serif" font-size="14.00" fill="#000000">kod źródłowy</text>
</g>
<!-- AST -->
<g id="node2" class="node">
<title>AST</title>
<ellipse fill="none" stroke="#000000" cx="81.0223" cy="-252.8" rx="29.0529" ry="18"/>
<text text-anchor="middle" x="81.0223" y="-248.6" font-family="Times,serif" font-size="14.00" fill="#000000">AST</text>
</g>
<!-- src&#45;&gt;AST -->
<g id="edge1" class="edge">
<title>src-&gt;AST</title>
<path fill="none" stroke="#000000" d="M81.0223,-323.2006C81.0223,-311.0949 81.0223,-295.0076 81.0223,-281.2674"/>
<polygon fill="#000000" stroke="#000000" points="84.5224,-280.872 81.0223,-270.872 77.5224,-280.8721 84.5224,-280.872"/>
<text text-anchor="middle" x="114.8337" y="-293" font-family="Times,serif" font-size="14.00" fill="#000000">Megaparsec</text>
</g>
<!-- normal -->
<g id="node3" class="node">
<title>normal</title>
<ellipse fill="none" stroke="#000000" cx="81.0223" cy="-179.8" rx="75.8643" ry="18"/>
<text text-anchor="middle" x="81.0223" y="-175.6" font-family="Times,serif" font-size="14.00" fill="#000000">postać normalna</text>
</g>
<!-- AST&#45;&gt;normal -->
<g id="edge2" class="edge">
<title>AST-&gt;normal</title>
<path fill="none" stroke="#000000" d="M81.0223,-234.7551C81.0223,-226.6828 81.0223,-216.9764 81.0223,-207.9817"/>
<polygon fill="#000000" stroke="#000000" points="84.5224,-207.8903 81.0223,-197.8904 77.5224,-207.8904 84.5224,-207.8903"/>
</g>
<!-- processed -->
<g id="node4" class="node">
<title>processed</title>
<ellipse fill="none" stroke="#000000" cx="81.0223" cy="-91" rx="81.0446" ry="18"/>
<text text-anchor="middle" x="81.0223" y="-86.8" font-family="Times,serif" font-size="14.00" fill="#000000">kod zanalizowany</text>
</g>
<!-- normal&#45;&gt;processed -->
<g id="edge3" class="edge">
<title>normal-&gt;processed</title>
<path fill="none" stroke="#000000" d="M81.0223,-161.4006C81.0223,-149.2949 81.0223,-133.2076 81.0223,-119.4674"/>
<polygon fill="#000000" stroke="#000000" points="84.5224,-119.072 81.0223,-109.072 77.5224,-119.0721 84.5224,-119.072"/>
<text text-anchor="middle" x="159.556" y="-131.2" font-family="Times,serif" font-size="14.00" fill="#000000">Typy, wywołania ogonowe</text>
</g>
<!-- JS -->
<g id="node5" class="node">
<title>JS</title>
<ellipse fill="none" stroke="#000000" cx="81.0223" cy="-18" rx="27" ry="18"/>
<text text-anchor="middle" x="81.0223" y="-13.8" font-family="Times,serif" font-size="14.00" fill="#000000">JS</text>
</g>
<!-- processed&#45;&gt;JS -->
<g id="edge4" class="edge">
<title>processed-&gt;JS</title>
<path fill="none" stroke="#000000" d="M81.0223,-72.9551C81.0223,-64.8828 81.0223,-55.1764 81.0223,-46.1817"/>
<polygon fill="#000000" stroke="#000000" points="84.5224,-46.0903 81.0223,-36.0904 77.5224,-46.0904 84.5224,-46.0903"/>
</g>
</g>
</svg>